<?xml version="1.0" encoding="UTF-8" standalone="no"?>
<svg
   height="24px"
   viewBox="0 -960 960 960"
   width="24px"
   fill="#e8eaed"
   version="1.1"
   id="svg1"
   sodipodi:docname="cube_add.svg"
   xml:space="preserve"
   inkscape:version="1.3.2 (091e20ef0f, 2023-11-25, custom)"
   xmlns:inkscape="http://www.inkscape.org/namespaces/inkscape"
   xmlns:sodipodi="http://sodipodi.sourceforge.net/DTD/sodipodi-0.dtd"
   xmlns="http://www.w3.org/2000/svg"
   xmlns:svg="http://www.w3.org/2000/svg"><defs
     id="defs1" /><sodipodi:namedview
     id="namedview1"
     pagecolor="#505050"
     bordercolor="#eeeeee"
     borderopacity="1"
     inkscape:showpageshadow="0"
     inkscape:pageopacity="0"
     inkscape:pagecheckerboard="0"
     inkscape:deskcolor="#505050"
     inkscape:zoom="12.785005"
     inkscape:cx="8.3691794"
     inkscape:cy="9.4642123"
     inkscape:window-width="1920"
     inkscape:window-height="1058"
     inkscape:window-x="0"
     inkscape:window-y="0"
     inkscape:window-maximized="0"
     inkscape:current-layer="svg1" /><path
     id="path1"
     d="M 480 -880 C 466.00001 -880 452.66665 -876.3177 440 -868.98438 L 160 -707.96875 C 147.33335 -700.63542 137.46874 -690.98436 130.46875 -678.98438 C 123.46876 -666.98439 120 -653.65103 120 -638.98438 L 120 -321.01562 C 120 -306.34897 123.46876 -293.01561 130.46875 -281.01562 C 137.46874 -269.01564 147.33335 -259.36458 160 -252.03125 L 440 -91.015625 C 452.66665 -83.682299 466.00001 -80 480 -80 C 493.99999 -80 507.33335 -83.682299 520 -91.015625 L 600.23438 -137.1875 A 198.19492 198.19492 0 0 1 567.42188 -210.46875 L 520 -182.96875 L 520 -457.03125 L 760 -596.01562 L 760 -451.25 A 198.19492 198.19492 0 0 1 760.46875 -451.25 A 198.19492 198.19492 0 0 1 840 -434.53125 L 840 -638.98438 C 840 -653.65103 836.53124 -666.98439 829.53125 -678.98438 C 822.53126 -690.98436 812.66665 -700.63542 800 -707.96875 L 520 -868.98438 C 507.33335 -876.3177 493.99999 -880 480 -880 z M 480 -800 L 717.03125 -662.96875 L 480 -526.01562 L 242.96875 -662.96875 L 480 -800 z M 200 -596.01562 L 440 -457.03125 L 440 -182.96875 L 200 -322.03125 L 200 -596.01562 z " /><g
     style="fill:#e8eaed"
     id="g1"
     transform="matrix(0.5476856,0,0,0.5476856,497.61866,9.8577007)"><path
       d="M 440,-440 H 200 v -80 h 240 v -240 h 80 v 240 h 240 v 80 H 520 v 240 h -80 z"
       id="path1-5" /></g></svg>
